<?xml version="1.0" encoding="iso-8859-1"?>
<!-- Generator: Adobe Illustrator 19.0.0, SVG Export Plug-In . SVG Version: 6.00 Build 0)  -->
<svg xmlns="http://www.w3.org/2000/svg" xmlns:xlink="http://www.w3.org/1999/xlink" version="1.1" id="Layer_1" x="0px" y="0px" viewBox="0 0 502.001 502.001" style="enable-background:new 0 0 502.001 502.001;" xml:space="preserve" width="512" height="512">
<g>
	<g>
		<path style="fill:#C69C6D;" d="M309.214,96.224c-2.219-0.693-4.321-1.75-6.085-3.263c-21.295-18.268-23.054-51.711-2.867-72.627    l9.973-10.333l-33.956,11.319c-16.982,5.661-30.105,19.395-34.775,36.676c-0.081,0.301-0.162,0.603-0.241,0.904    c-0.868,3.298-2.047,6.477-3.508,9.497c-5.964,12.326-17.523,20.911-30.865,23.993c-82.667,19.097-144.104,90.67-144.104,176.048    c0,99.99,84.266,181.049,188.214,181.049s188.214-81.058,188.214-181.049C439.214,187.991,384.668,119.809,309.214,96.224z"/>
	</g>
	<g>
		<path d="M449.214,268.437c0-41.223-13.407-80.477-38.773-113.519c-24.799-32.304-58.771-55.9-98.242-68.238    c-1.063-0.333-1.948-0.785-2.559-1.31c-8.069-6.922-12.991-17.137-13.503-28.025c-0.531-11.275,3.49-21.953,11.321-30.067    l9.973-10.333c3.198-3.313,3.72-8.381,1.264-12.277c-2.455-3.895-7.254-5.61-11.622-4.154l-33.956,11.319    c-20.298,6.766-35.724,23.047-41.27,43.564l-0.255,0.958c-0.696,2.645-1.651,5.231-2.839,7.686    c-4.513,9.326-13.302,16.107-24.114,18.604c-42.506,9.819-81.037,33.445-108.496,66.525    c-27.959,33.684-43.357,76.04-43.357,119.266c0,93.833,70.547,172.083,163.202,188.064l-15.53,15.53    c-3.905,3.905-3.905,10.237,0,14.143c1.953,1.952,4.512,2.929,7.071,2.929s5.119-0.977,7.071-2.929l24.966-24.966v21.717    c0,5.523,4.477,10,10,10s10-4.477,10-10v-21.717l37.864,37.864c1.953,1.953,4.512,2.929,7.071,2.929s5.119-0.976,7.071-2.929    c3.905-3.905,3.905-10.237,0-14.143l-28.033-28.033C377.408,441.889,449.214,363.1,449.214,268.437z M251,439.486    c-98.268,0-178.214-76.732-178.214-171.049c0-79.372,56.071-147.758,136.354-166.304c16.742-3.867,30.452-14.576,37.616-29.38    c1.749-3.614,3.154-7.419,4.176-11.303l0.226-0.846c3.789-14.018,14.362-25.157,28.284-29.797l2.155-0.718    c-4.017,8.692-5.904,18.291-5.438,28.198c0.771,16.367,8.228,31.771,20.458,42.264c2.692,2.31,5.926,4.065,9.611,5.218    c0,0,0.001,0,0.002,0c73.561,22.993,122.984,88.364,122.984,162.668C429.214,362.754,349.268,439.486,251,439.486z"/>
		<path d="M320.843,138.501c-4.485,3.222-5.51,9.47-2.288,13.956c21.752,30.283,34.227,73.196,34.227,117.734    c0,41.499-10.508,80.873-29.588,110.871c-2.964,4.66-1.589,10.84,3.071,13.805c1.664,1.058,3.521,1.563,5.357,1.563    c3.306,0,6.542-1.638,8.447-4.634c21.095-33.166,32.712-76.353,32.712-121.605c0-49.345-13.489-95.301-37.983-129.402    C331.577,136.304,325.329,135.279,320.843,138.501z"/>
		<path d="M275.15,128.326c-5.356,1.346-8.607,6.779-7.261,12.136c8.413,33.473,13.238,80.854,13.238,129.992    c0,45.777-4.064,89.247-11.443,122.401c-1.2,5.391,2.198,10.734,7.589,11.934c0.732,0.163,1.462,0.241,2.182,0.241    c4.583,0,8.715-3.17,9.752-7.83c7.687-34.539,11.92-79.551,11.92-126.746c0-51.457-4.916-99.354-13.841-134.867    C285.94,130.232,280.506,126.981,275.15,128.326z"/>
		<path d="M221.118,128.326c-5.356-1.344-10.789,1.905-12.136,7.261c-8.926,35.513-13.841,83.41-13.841,134.867    c0,47.195,4.233,92.208,11.92,126.746c1.037,4.66,5.169,7.83,9.752,7.83c0.719,0,1.45-0.078,2.182-0.241    c5.391-1.2,8.789-6.543,7.589-11.934c-7.379-33.155-11.443-76.625-11.443-122.401c0-49.138,4.825-96.519,13.238-129.992    C229.725,135.106,226.474,129.673,221.118,128.326z"/>
		<path d="M175.425,138.501c-4.486-3.223-10.733-2.198-13.956,2.288c-24.494,34.101-37.983,80.057-37.983,129.402    c0,45.252,11.618,88.439,32.712,121.605c1.906,2.996,5.141,4.634,8.447,4.634c1.836,0,3.694-0.505,5.357-1.563    c4.66-2.964,6.035-9.145,3.071-13.805c-19.081-29.998-29.588-69.373-29.588-110.871c0-44.538,12.475-87.451,34.227-117.734    C180.935,147.971,179.911,141.723,175.425,138.501z"/>
	</g>
</g>















</svg>
